HIERARCHY
ROOT Hips
{
	OFFSET -0.001795 -0.223333 0.028219
	CHANNELS 6 Xposition Yposition Zposition Zrotation Yrotation Xrotation 
	JOINT LeftUpLeg
	{
		OFFSET 0.069520 -0.091406 -0.006815
		CHANNELS 3 Zrotation Yrotation Xrotation
		JOINT LeftLeg
		{
			OFFSET 0.034277 -0.375199 -0.004496
			CHANNELS 3 Zrotation Yrotation Xrotation
			JOINT LeftFoot
			{
				OFFSET -0.013596 -0.397961 -0.043693
				CHANNELS 3 Zrotation Yrotation Xrotation
				JOINT LeftToe
				{
					OFFSET 0.026358 -0.055791 0.119288
					CHANNELS 3 Zrotation Yrotation Xrotation
					End Site
					{
						OFFSET 0.000000 0.000000 0.000000
					}
				}
			}
		}
	}
	JOINT RightUpLeg
	{
		OFFSET -0.067670 -0.090522 -0.004320
		CHANNELS 3 Zrotation Yrotation Xrotation
		JOINT RightLeg
		{
			OFFSET -0.038290 -0.382569 -0.008850
			CHANNELS 3 Zrotation Yrotation Xrotation
			JOINT RightFoot
			{
				OFFSET 0.015774 -0.398415 -0.042312
				CHANNELS 3 Zrotation Yrotation Xrotation
				JOINT RightToe
				{
					OFFSET -0.025372 -0.048144 0.123348
					CHANNELS 3 Zrotation Yrotation Xrotation
					End Site
					{
						OFFSET 0.000000 0.000000 0.000000
					}
				}
			}
		}
	}
	JOINT Spine
	{
		OFFSET -0.002533 0.108963 -0.026696
		CHANNELS 3 Zrotation Yrotation Xrotation
		JOINT Spine1
		{
			OFFSET 0.005487 0.135180 0.001092
			CHANNELS 3 Zrotation Yrotation Xrotation
			JOINT Spine2
			{
				OFFSET 0.001457 0.052922 0.025425
				CHANNELS 3 Zrotation Yrotation Xrotation
				JOINT Neck
				{
					OFFSET -0.002778 0.213870 -0.042857
					CHANNELS 3 Zrotation Yrotation Xrotation
					JOINT Head
					{
						OFFSET 0.005152 0.064970 0.051349
						CHANNELS 3 Zrotation Yrotation Xrotation
						End Site
						{
							OFFSET 0.000000 0.000000 0.000000
						}
					}
				}
				JOINT LeftShoulder
				{
					OFFSET 0.078845 0.121749 -0.034090
					CHANNELS 3 Zrotation Yrotation Xrotation
					JOINT LeftArm
					{
						OFFSET 0.090977 0.030469 -0.008868
						CHANNELS 3 Zrotation Yrotation Xrotation
						JOINT LeftForeArm
						{
							OFFSET 0.259612 -0.012772 -0.027456
							CHANNELS 3 Zrotation Yrotation Xrotation
							JOINT LeftHand
							{
								OFFSET 0.249234 0.008986 -0.001171
								CHANNELS 3 Zrotation Yrotation Xrotation
								End Site
								{
									OFFSET 0.000000 0.000000 0.000000
								}
							}
						}
					}
				}
				JOINT RightShoulder
				{
					OFFSET -0.081759 0.118833 -0.038615
					CHANNELS 3 Zrotation Yrotation Xrotation
					JOINT RightArm
					{
						OFFSET -0.096012 0.032551 -0.009143
						CHANNELS 3 Zrotation Yrotation Xrotation
						JOINT RightForeArm
						{
							OFFSET -0.253742 -0.013329 -0.021401
							CHANNELS 3 Zrotation Yrotation Xrotation
							JOINT RightHand
							{
								OFFSET -0.255298 0.007772 -0.005559
								CHANNELS 3 Zrotation Yrotation Xrotation
								End Site
								{
									OFFSET 0.000000 0.000000 0.000000
								}
							}
						}
					}
				}
			}
		}
	}
}
MOTION
Frames: 7
Frame Time: 0.050000
0.000000 0.955889 0.000000 -0.526449 -3.573615 1.721203 3.378919 0.379831 6.169612 -1.626060 0.364870 -8.217551 3.768548 10.839814 14.701219 0.000000 0.000000 0.000000 -3.793352 -0.039097 2.739079 2.800873 -0.331341 -4.177358 -2.296657 -9.677982 11.777532 0.000000 0.000000 0.000000 5.905919 -0.273198 2.133263 -5.057605 1.786452 -22.924270 -1.398740 5.446945 29.212874 8.836534 -4.128465 -20.019003 0.000000 0.000000 0.000000 -0.974628 2.188286 -0.881418 -24.509242 -8.582934 -2.707058 12.947679 -19.417188 -1.541692 0.000000 0.000000 0.000000 8.536202 -11.889270 -5.428609 24.040216 10.994112 -2.075106 -11.383131 17.602799 -0.745377 0.000000 0.000000 0.000000 
0.000271 0.954162 0.002185 -0.916922 -4.060250 1.997642 3.597264 0.416792 6.847300 -1.423236 0.394563 -9.536933 3.940794 11.055870 14.715776 0.000000 0.000000 0.000000 -3.658581 -0.025473 2.505057 2.859102 -0.332062 -4.265861 -2.422522 -10.013915 11.981297 0.000000 0.000000 0.000000 6.387455 -0.237209 1.564214 -5.442987 1.877152 -22.666960 -1.286712 5.595558 29.215455 8.643907 -4.102500 -19.535953 0.000000 0.000000 0.000000 -1.419931 2.124386 -0.896311 -26.564871 -8.618100 -2.905422 11.495253 -17.932222 -1.153429 0.000000 0.000000 0.000000 9.535573 -11.871357 -5.570732 26.597822 9.994940 -2.367629 -10.955587 19.408696 -0.770380 0.000000 0.000000 0.000000 
0.000338 0.953323 0.003732 -0.636845 -4.329698 1.960532 3.806688 0.392620 6.614104 -2.005958 0.386810 -8.192239 4.063186 11.172052 14.419628 0.000000 0.000000 0.000000 -4.228057 0.012921 2.502446 3.131134 -0.346320 -4.390284 -1.547847 -8.469856 12.120348 0.000000 0.000000 0.000000 6.483355 -0.218631 1.364120 -5.550818 1.891371 -23.160806 -1.470424 6.617551 30.362603 9.714250 -4.599039 -20.171581 0.000000 0.000000 0.000000 -2.467575 1.958672 -0.955049 -28.466668 -9.020867 -3.052024 10.869201 -18.635679 -1.115867 0.000000 0.000000 0.000000 11.677418 -12.512473 -6.079993 28.247513 10.834402 -2.419400 -9.756216 19.411730 -0.538086 0.000000 0.000000 0.000000 
0.000300 0.953258 0.005255 -0.649086 -4.874481 1.581111 4.013487 0.441569 7.348729 -2.117891 0.394411 -8.112508 4.184125 11.231145 13.856479 0.000000 0.000000 0.000000 -4.543506 0.000061 3.161522 3.735913 -0.375162 -4.413508 -1.435416 -8.468109 12.608248 0.000000 0.000000 0.000000 6.626736 -0.209585 1.339469 -5.754162 1.937012 -23.250196 -1.520811 6.638848 31.191409 9.167698 -4.305094 -20.170243 0.000000 0.000000 0.000000 -3.745188 2.456194 -1.255757 -31.409691 -8.711168 -3.456820 11.507582 -18.862283 -1.170145 0.000000 0.000000 0.000000 13.090067 -12.648205 -6.382599 30.171226 11.105288 -2.513611 -8.990986 20.062553 -0.436881 0.000000 0.000000 0.000000 
0.000166 0.953436 0.006478 -0.693894 -4.891442 1.710756 4.310256 0.418166 7.312371 -2.353590 0.409819 -8.299987 3.967289 10.911847 14.019042 0.000000 0.000000 0.000000 -4.586114 0.008945 3.078434 3.460562 -0.361254 -4.620600 -1.294089 -8.353247 13.073853 0.000000 0.000000 0.000000 6.295146 -0.192382 1.204449 -5.107243 1.776282 -22.914768 -1.628821 6.681616 30.567446 9.255733 -4.402820 -19.730982 0.000000 0.000000 0.000000 -5.179233 2.027781 -1.237326 -33.632740 -7.537557 -3.885763 10.478874 -18.737980 -0.976760 0.000000 0.000000 0.000000 13.879645 -12.265377 -6.306826 32.265415 10.457466 -2.701049 -8.142882 20.403415 -0.301243 0.000000 0.000000 0.000000 
0.000011 0.953643 0.007352 -0.649055 -5.238032 1.980054 4.201861 0.398882 6.852159 -2.093703 0.390527 -7.870066 4.290504 11.369442 13.972705 0.000000 0.000000 0.000000 -4.997615 0.061526 2.755700 3.678009 -0.367941 -4.463791 -1.037172 -7.957927 13.168649 0.000000 0.000000 0.000000 6.205697 -0.177482 1.012972 -5.293638 1.820804 -22.721475 -1.486484 6.509782 30.456729 8.875807 -4.023625 -20.710771 0.000000 0.000000 0.000000 -5.990736 2.473922 -1.478317 -37.067075 -7.064873 -4.362163 9.712061 -18.417743 -0.778566 0.000000 0.000000 0.000000 15.104259 -12.032542 -6.439870 35.099565 10.524598 -2.785292 -7.306591 20.556752 -0.164284 0.000000 0.000000 0.000000 
-0.000232 0.953565 0.007902 -0.640586 -5.639762 2.145494 4.308883 0.400365 6.890061 -2.176938 0.404385 -8.171127 4.455054 11.617284 14.226821 0.000000 0.000000 0.000000 -4.950229 0.071716 2.644773 3.575403 -0.358879 -4.602902 -0.854670 -7.677237 13.163492 0.000000 0.000000 0.000000 6.068424 -0.185305 1.096073 -5.012448 1.742758 -22.571711 -1.479951 6.766062 30.164365 8.891194 -3.970682 -20.966916 0.000000 0.000000 0.000000 -7.844004 2.662634 -1.761191 -39.704713 -5.661162 -5.023861 9.009649 -18.314478 -0.634893 0.000000 0.000000 0.000000 16.642151 -11.625583 -6.460750 37.887455 9.676255 -3.132980 -6.984076 20.461725 -0.084511 0.000000 0.000000 0.000000 
